<?xml version="1.0" standalone="no"?><!DOCTYPE svg PUBLIC "-//W3C//DTD SVG 1.1//EN" "http://www.w3.org/Graphics/SVG/1.1/DTD/svg11.dtd"><svg t="1714915139212" class="icon" viewBox="0 0 1024 1024" version="1.1" xmlns="http://www.w3.org/2000/svg" p-id="4281" xmlns:xlink="http://www.w3.org/1999/xlink" width="200" height="200"><path d="M661.333333 440.32c-11.946667 0-21.76-9.813333-21.76-21.76 0-43.52-11.093333-74.666667-33.28-93.44-21.333333-17.92-48.64-20.906667-63.146666-20.906667-8.106667 0-13.226667 0.853333-13.226667 0.853334-1.28 0-2.56 0.426667-3.84 0.426666-10.666667 0-19.626667-7.68-21.333333-18.346666-0.853333-5.546667 0.426667-11.52 3.84-16.213334 3.413333-4.693333 8.533333-7.68 14.08-8.96 0.426667 0 8.106667-1.28 20.053333-1.28 20.48 0 59.733333 3.84 91.733333 31.146667 32 27.306667 48.64 69.973333 48.64 126.72 0 12.373333-9.813333 21.76-21.76 21.76z" fill="#1296db" p-id="4282"></path><path d="M464.64 106.24c-202.666667 0-366.933333 164.266667-366.933333 366.933333s164.266667 366.933333 366.933333 366.933334 366.933333-164.266667 366.933333-366.933334-164.266667-366.933333-366.933333-366.933333z m0 665.6c-164.693333 0-298.666667-133.973333-298.666667-298.666667s133.973333-298.666667 298.666667-298.666666 298.666667 133.973333 298.666667 298.666666-133.973333 298.666667-298.666667 298.666667z" fill="#1296db" p-id="4283"></path><path d="M940.8 915.626667c-13.226667 13.226667-34.986667 13.226667-48.213333 0l-180.906667-180.906667c-13.226667-13.226667-13.226667-34.986667 0-48.213333 13.226667-13.226667 34.986667-13.226667 48.213333 0l180.906667 180.906666c13.653333 13.226667 13.653333 34.986667 0 48.213334z" fill="#1296db" p-id="4284"></path></svg>